<?xml version="1.0" encoding="UTF-8"?>
<svg version="1.1" xmlns="http://www.w3.org/2000/svg" width="48" height="48">
<path d="M0 0 C4.68796317 2.8950501 8.77605467 6.42344712 10.234375 11.89453125 C11.16656452 18.74158704 11.3930195 24.99387098 7.671875 31.01953125 C3.66347868 35.99068326 0.31000422 38.47580101 -6.0078125 39.3359375 C-13.1275177 39.69575056 -18.34453314 39.19135672 -23.98828125 34.640625 C-29.08369757 29.63479842 -30.03494232 26.05750776 -30.390625 19.01953125 C-30.17838344 12.13997715 -28.58962241 7.80486419 -23.765625 2.89453125 C-17.29271618 -2.6344117 -7.84970384 -3.13766411 0 0 Z M-17.765625 8.89453125 C-18.04277396 11.02705218 -18.04277396 11.02705218 -17.9609375 13.46484375 C-17.95449219 14.36074219 -17.94804687 15.25664062 -17.94140625 16.1796875 C-17.92464844 17.11683594 -17.90789063 18.05398437 -17.890625 19.01953125 C-17.88160156 19.96441406 -17.87257813 20.90929688 -17.86328125 21.8828125 C-17.83967022 24.22030417 -17.80674016 26.55729248 -17.765625 28.89453125 C-16.445625 28.89453125 -15.125625 28.89453125 -13.765625 28.89453125 C-13.765625 27.24453125 -13.765625 25.59453125 -13.765625 23.89453125 C-9.75969834 24.16766261 -8.225051 24.37129608 -5.515625 27.45703125 C-4.938125 28.26140625 -4.360625 29.06578125 -3.765625 29.89453125 C-3.105625 29.89453125 -2.445625 29.89453125 -1.765625 29.89453125 C-2.39322365 26.96573754 -3.35185159 24.53357496 -4.765625 21.89453125 C-4.270625 21.54390625 -3.775625 21.19328125 -3.265625 20.83203125 C-0.94471124 17.83418431 -1.31448634 15.56808892 -1.765625 11.89453125 C-3.00953205 9.31497706 -3.00953205 9.31497706 -5.765625 7.89453125 C-12.27743244 6.23665603 -12.27743244 6.23665603 -17.765625 8.89453125 Z " fill="#218BE6" transform="translate(33.765625,5.10546875)"/>
<path d="M0 0 C6.15234375 -0.09765625 6.15234375 -0.09765625 8 0 C9 1 9 1 9.125 4.5 C9 8 9 8 8 9 C5.32941149 9.14115161 2.67567762 9.04247107 0 9 C0 6.03 0 3.06 0 0 Z " fill="#218AE5" transform="translate(20,16)"/>
</svg>
